<mxfile host="65bd71144e">
    <diagram id="-7gMCdurelPNCG8w4W-R" name="Page-1">
        <mxGraphModel dx="299" dy="521" grid="1" gridSize="10" guides="1" tooltips="1" connect="1" arrows="1" fold="1" page="1" pageScale="1" pageWidth="827" pageHeight="1169" math="0" shadow="0">
            <root>
                <mxCell id="0"/>
                <mxCell id="1" parent="0"/>
                <mxCell id="2" value="&lt;font style=&quot;font-size: 40px&quot; color=&quot;#000000&quot;&gt;nbh&lt;/font&gt;" style="whiteSpace=wrap;html=1;aspect=fixed;fillColor=#CCFFFF;fontFamily=Courier New;fontStyle=0" vertex="1" parent="1">
                    <mxGeometry width="80" height="80" as="geometry"/>
                </mxCell>
            </root>
        </mxGraphModel>
    </diagram>
</mxfile>